<svg xmlns="http://www.w3.org/2000/svg" xmlns:xlink="http://www.w3.org/1999/xlink" x="0px" y="0px" viewBox="0 0 192 192" hola_ext_inject="disabled">
    <rect width="192" height="192" fill="none" />
    <rect width="192" height="192" fill="none" />
    <path fill="#F4481E" d="M170.8,86.1L37.4,10.3c-5.7-3.2-10.8-2.9-13.9,0.1l0,0c-2.2,2.1-3.4,5.5-3.4,9.9v151.3 c0,4.4,1.3,7.8,3.4,9.9l0,0c3.2,3.1,8.2,3.4,13.9,0.1l133.4-75.8C180.4,100.4,180.4,91.6,170.8,86.1z" />
    <linearGradient id="a" x1="98.9857" x2="98.9857" y1="183.6666" y2="7.938" gradientUnits="userSpaceOnUse">
        <stop offset="0" stop-color="#FFF" stop-opacity="0" />
        <stop offset="1" stop-color="#FFF" stop-opacity="0.1" />
    </linearGradient>
    <path fill="url(#a)" d="M170.8,86.1L37.4,10.3c-5.7-3.2-10.8-2.9-13.9,0.1l0,0c-2.2,2.1-3.4,5.5-3.4,9.9v151.3 c0,4.4,1.3,7.8,3.4,9.9l0,0c3.2,3.1,8.2,3.4,13.9,0.1l133.4-75.8C180.4,100.4,180.4,91.6,170.8,86.1z" />
    <path fill="#FFF" d="M170.8,87.1L37.4,11.3C27.8,5.9,20,10.4,20,21.3v-1c0-11,7.8-15.5,17.4-10l133.4,75.8 c5,2.8,7.4,6.6,7.1,10.4C177.7,93.1,175.4,89.7,170.8,87.1z" opacity="0.1" />
    <path fill="#FFD119" d="M157.6,113.4c1.6-5.5,2.4-11.4,2.4-17.4c0-35.3-28.7-64-64-64S32,60.7,32,96c0,29.6,20.1,54.5,47.4,61.8 L157.6,113.4z" />
    <circle cx="96" cy="96" r="40" fill="#FF8C00" />
    <linearGradient id="b" x1="104.3169" x2="119.2413" y1="110.4006" y2="136.2504" gradientUnits="userSpaceOnUse">
        <stop offset="0" stop-color="#991700" stop-opacity="0" />
        <stop offset="1" stop-color="#991700" stop-opacity="0.1" />
    </linearGradient>
    <path fill="url(#b)" d="M96,32c-35.3,0-64,28.7-64,64c0,29.6,20.1,54.5,47.4,61.8l78.2-44.4c1.6-5.5,2.4-11.4,2.4-17.4 C160,60.7,131.3,32,96,32z" />
    <g>
        <g xmlns="http://www.w3.org/2000/svg" transform="scale(0.45) translate(144, 134)" height="60" width="47" fill="#EEE">
            <path d="M49.1266117,32.7678207 C29.6225024,29.215471 14.2013759,32.9334829 8.05524688,43.5788906 C3.46886775,51.5227323 4.77984702,62.0549428 11.2346334,73.313229 C11.784031,74.2714753 13.0062179,74.6029127 13.9644642,74.0535151 C14.9227105,73.5041175 15.2541479,72.2819306 14.7047503,71.3236842 C8.89020489,61.1820912 7.75877926,52.0923876 11.5193485,45.5788906 C16.6249641,36.7357049 30.3803417,33.4193028 48.4098692,36.7030819 C49.4965616,36.9010048 50.5379481,36.1805149 50.735871,35.0938225 C50.933794,34.0071302 50.2133041,32.9657437 49.1266117,32.7678207 L49.1266117,32.7678207 Z M21.3774192,86.9975982 C29.2637932,95.6641388 39.5095099,103.792918 51.1941736,110.539062 C79.4867375,126.873781 109.60617,131.239854 124.450276,121.118296 C125.362885,120.496027 125.598252,119.251763 124.975984,118.339154 C124.353715,117.426545 123.10945,117.191177 122.196841,117.813446 C108.911542,126.872121 80.3002617,122.724668 53.1941736,107.07496 C41.8587362,100.530443 31.9375168,92.6591138 24.3358707,84.3054681 C23.5924595,83.4885142 22.3275337,83.4288961 21.5105799,84.1723074 C20.6936261,84.9157186 20.634008,86.1806443 21.3774192,86.9975982 L21.3774192,86.9975982 Z" />
            <path d="M119.715028,84.5645564 C132.485847,69.4778279 136.944975,54.3039723 130.811502,43.6804851 C126.298377,35.8635227 116.757502,31.7364946 104.07783,31.5715943 C102.973354,31.5572305 102.066355,32.4409411 102.051991,33.5454172 C102.037627,34.6498933 102.921338,35.5568923 104.025814,35.5712561 C115.42958,35.7195631 123.64924,39.2750828 127.3474,45.6804851 C132.441983,54.504561 128.465433,68.0362633 116.661994,81.980183 C115.948339,82.823255 116.053252,84.0852315 116.896324,84.7988865 C117.739396,85.5125415 119.001373,85.4076283 119.715028,84.5645564 L119.715028,84.5645564 Z M86.8941729,33.4337961 C75.3472476,35.9077753 63.0565872,40.7449031 51.2528293,47.5598059 C22.0460997,64.4223191 2.99388753,89.2866992 5.63992146,107.315628 C5.80031644,108.40849 6.81628192,109.164404 7.90914387,109.004009 C9.00200581,108.843614 9.75791963,107.827648 9.59752465,106.734786 C7.24812559,90.7269991 25.3077559,67.1580032 53.2528293,51.0239075 C64.7034124,44.4129103 76.6040539,39.7292788 87.732172,37.3450308 C88.8122297,37.1136238 89.5001969,36.0504715 89.2687899,34.9704139 C89.0373828,33.8903562 87.9742306,33.202389 86.8941729,33.4337961 L86.8941729,33.4337961 Z" />
            <path d="M39.5781566,119.814969 C46.2553365,138.460057 57.1791975,149.939723 69.4627023,149.939723 C78.4212923,149.939723 86.7097444,143.832927 93.173031,133.08146 C93.7421303,132.134782 93.4360422,130.906001 92.4893639,130.336902 C91.5426857,129.767803 90.3139052,130.073891 89.7448058,131.020569 C83.9362601,140.682896 76.8014285,145.939723 69.4627023,145.939723 C59.2591023,145.939723 49.5159822,135.700874 43.3439572,118.46636 C42.9715492,117.426463 41.8266497,116.885356 40.7867525,117.257764 C39.7468554,117.630172 39.2057486,118.775072 39.5781566,119.814969 L39.5781566,119.814969 Z M100.569304,116.167782 C104.025952,105.121643 105.882448,92.3789056 105.882448,79.1002312 C105.882448,45.9661542 94.2856748,17.4033342 77.7676045,10.0688089 C76.758081,9.62054985 75.5763148,10.0755445 75.1280557,11.0850679 C74.6797966,12.0945914 75.1347913,13.2763576 76.1443147,13.7246167 C90.8764366,20.2661265 101.882448,47.373902 101.882448,79.1002312 C101.882448,91.9827075 100.084575,104.323064 96.7518499,114.973193 C96.4219733,116.027354 97.0091217,117.149338 98.0632826,117.479214 C99.1174435,117.809091 100.239428,117.221943 100.569304,116.167782 L100.569304,116.167782 Z" />
            <path d="M138.23701,114.208372 C138.23701,108.921713 133.951325,104.636028 128.664666,104.636028 C123.378006,104.636028 119.092321,108.921713 119.092321,114.208372 C119.092321,119.495032 123.378006,123.780716 128.664666,123.780716 C133.951325,123.780716 138.23701,119.495032 138.23701,114.208372 L138.23701,114.208372 Z M134.23701,114.208372 C134.23701,117.285893 131.742186,119.780716 128.664666,119.780716 C125.587145,119.780716 123.092321,117.285893 123.092321,114.208372 C123.092321,111.130852 125.587145,108.636028 128.664666,108.636028 C131.742186,108.636028 134.23701,111.130852 134.23701,114.208372 L134.23701,114.208372 Z" />
            <path d="M10.1230622,123.780716 C15.4097219,123.780716 19.6954063,119.495032 19.6954063,114.208372 C19.6954063,108.921713 15.4097219,104.636028 10.1230622,104.636028 C4.83640249,104.636028 0.550718038,108.921713 0.550718038,114.208372 C0.550718038,119.495032 4.83640249,123.780716 10.1230622,123.780716 L10.1230622,123.780716 Z M10.1230622,119.780716 C7.04554149,119.780716 4.55071804,117.285893 4.55071804,114.208372 C4.55071804,111.130852 7.04554149,108.636028 10.1230622,108.636028 C13.2005829,108.636028 15.6954063,111.130852 15.6954063,114.208372 C15.6954063,117.285893 13.2005829,119.780716 10.1230622,119.780716 L10.1230622,119.780716 Z" />
            <path d="M69.4627023,19.8330832 C74.749362,19.8330832 79.0350464,15.5473987 79.0350464,10.2607391 C79.0350464,4.97407937 74.749362,0.688394921 69.4627023,0.688394921 C64.1760426,0.688394921 59.8903582,4.97407937 59.8903582,10.2607391 C59.8903582,15.5473987 64.1760426,19.8330832 69.4627023,19.8330832 L69.4627023,19.8330832 Z M69.4627023,15.8330832 C66.3851816,15.8330832 63.8903582,13.3382597 63.8903582,10.2607391 C63.8903582,7.18321837 66.3851816,4.68839492 69.4627023,4.68839492 C72.540223,4.68839492 75.0350464,7.18321837 75.0350464,10.2607391 C75.0350464,13.3382597 72.540223,15.8330832 69.4627023,15.8330832 L69.4627023,15.8330832 Z" />
            <path d="M70.9248064,85.8696781 C67.1859596,86.677522 63.5024446,84.3014176 62.6930199,80.5625709 C61.8867569,76.8237241 64.2612803,73.1402091 68.0001271,72.3307843 C71.7389739,71.5229405 75.4224889,73.8990448 76.2319137,77.6378916 C77.0397575,81.3767383 74.6636532,85.0602533 70.9248064,85.8696781 Z" />
        </g>
    </g>
    <path fill="#FFF" d="M96,33c35.2,0,63.8,28.4,64,63.6c0-0.2,0-0.4,0-0.6c0-35.3-28.7-64-64-64S32,60.7,32,96 c0,0.2,0,0.4,0,0.5C32.3,61.4,60.8,33,96,33z" opacity="0.3" />
</svg>
