<svg id="Tray_Icon" xmlns="http://www.w3.org/2000/svg" viewBox="0 0 1280 1280">
  <style>
    .st0{fill:#F44A23;} .st1{fill:#FFFFFF;}
  </style>
  <circle id="Hintergrund" class="st0" cx="640" cy="640" r="640"/>
  <path id="Pfeil_Hintergrund" class="st0" d="M1280.3 949.8c0-4.5-4.5-8.3-8.2-10.3L725 624.8v650l547.1-314.7c3.7-1.9 8.2-5.8 8.2-10.3zm-7.4-10.8c-.1 0-.2-.1-.3-.1.1 0 .2.1.3.1zm-1.2-.4c-.1 0-.3-.1-.4-.1.1 0 .3 0 .4.1zm-1.3-.3c-.1 0-.3 0-.4-.1.1.1.2.1.4.1zm-3-.1c-.8.1-1.5.2-2.3.5.8-.2 1.5-.4 2.3-.5zm-4.4 1.4c-.7.4-1.3.8-1.9 1.3.7-.6 1.3-1 1.9-1.3zm-2.6 2c-.5.5-1 1.1-1.4 1.7.4-.6.8-1.2 1.4-1.7zm-1.5 14.8c.4.6.9 1.2 1.4 1.7-.5-.5-.9-1.1-1.4-1.7zm2.3 2.5c.6.5 1.2.9 1.9 1.3-.7-.5-1.3-.9-1.9-1.3zm3.9 2.1c.7.2 1.5.4 2.3.5-.8-.1-1.5-.3-2.3-.5zm7.5-.2c.1 0 .2-.1.3-.1-.1 0-.2.1-.3.1zm-2.6.6c.1 0 .3 0 .4-.1-.2.1-.3.1-.4.1zm1.3-.2c.1 0 .3-.1.4-.1-.1 0-.3.1-.4.1z"/>
  <path id="Pfeil_1_" class="st1" d="M772 676.7l468.3 270.4L772 1217.4z"/>
  <path id="Note" class="st1" d="M640 701c-22.9-15.3-45.7-23-76.2-23-83.9 0-152.5 68.7-152.5 152.6S480.1 983.1 564 983.1s168-68.6 168-152.5V457h137V297H640v404z"/>
</svg>
