<svg id="main_logo" xmlns="http://www.w3.org/2000/svg" viewBox="0 0 1280 1280">
  <style>
    .st0{fill:none;} .st1{fill:#F4481E;} .st2{fill:url(#XMLID_32_);} .st3{opacity:0.1;fill:#FFFFFF;enable-background:new ;} .st4{fill:#FFD119;} .st5{fill:#FF8C00;} .st6{fill:url(#XMLID_33_);} .st7{fill:#EEEEEE;} .st8{opacity:0.3;fill:#FFFFFF;enable-background:new ;}
  </style>
  <path id="XMLID_31_" class="st0" d="M0 0h1280v1280H0z"/>
  <path id="XMLID_30_" class="st0" d="M0 0h1280v1280H0z"/>
  <path id="XMLID_29_" class="st1" d="M1138.7 574L249.3 68.7c-38-21.3-72-19.3-92.7.7-14.7 14-22.7 36.7-22.7 66V1144c0 29.3 8.7 52 22.7 66 21.3 20.7 54.7 22.7 92.7.7l889.3-505.3c64.1-36.1 64.1-94.7.1-131.4z"/>
  <linearGradient id="XMLID_32_" gradientUnits="userSpaceOnUse" x1="660.3333" y1="57.556" x2="660.3333" y2="1229.08" gradientTransform="matrix(1 0 0 -1 0 1282)">
    <stop offset="0" stop-color="#FFF" stop-opacity="0"/>
    <stop offset="1" stop-color="#FFF" stop-opacity=".1"/>
  </linearGradient>
  <path id="XMLID_28_" class="st2" d="M1138.7 574L249.3 68.7c-38-21.3-72-19.3-92.7.7-14.7 14-22.7 36.7-22.7 66V1144c0 29.3 8.7 52 22.7 66 21.3 20.7 54.7 22.7 92.7.7l889.3-505.3c64.1-36.1 64.1-94.7.1-131.4z"/>
  <path id="XMLID_27_" class="st3" d="M1138.7 580.7L249.3 75.3c-64-36-116-6-116 66.7v-6.7c0-73.3 52-103.3 116-66.7L1138.7 574c33.3 18.7 49.3 44 47.3 69.3-1.3-22.6-16.7-45.3-47.3-62.6z"/>
  <path id="XMLID_26_" class="st4" d="M1050.7 756c10.7-36.7 16-76 16-116 0-235.3-191.3-426.7-426.7-426.7S213.3 404.7 213.3 640c0 197.3 134 363.3 316 412l521.4-296z"/>
  <circle id="XMLID_25_" class="st5" cx="640" cy="640" r="266.7"/>
  <linearGradient id="XMLID_33_" gradientUnits="userSpaceOnUse" x1="695.3882" y1="545.9626" x2="794.8842" y2="373.6306" gradientTransform="matrix(1 0 0 -1 0 1282)">
    <stop offset="0" stop-color="#991700" stop-opacity="0"/>
    <stop offset="1" stop-color="#991700" stop-opacity=".1"/>
  </linearGradient>
  <path id="XMLID_24_" class="st6" d="M640 213.3c-235.3 0-426.7 191.3-426.7 426.7 0 197.3 134 363.3 316 412l521.3-296c10.7-36.7 16-76 16-116 .1-235.3-191.3-426.7-426.6-426.7z"/>
  <g id="XMLID_3_">
    <g id="XMLID_4_">
      <path id="XMLID_21_" class="st7" d="M579.375 500.31c-58.5-10.665-104.76.495-123.21 32.445-13.77 23.85-9.81 55.44 9.54 89.19 1.665 2.88 5.31 3.87 8.19 2.205s3.87-5.31 2.205-8.19c-17.46-30.42-20.835-57.69-9.54-77.22 15.3-26.55 56.565-36.495 110.655-26.64 3.24.585 6.39-1.575 6.975-4.815.63-3.285-1.53-6.39-4.815-6.975zm-83.25 162.675c23.67 26.01 54.405 50.4 89.46 70.605 84.87 49.005 175.23 62.1 219.78 31.725 2.745-1.845 3.465-5.58 1.575-8.325-1.845-2.745-5.58-3.465-8.325-1.575-39.87 27.18-125.685 14.715-207-32.22-34.02-19.62-63.765-43.245-86.58-68.31-2.25-2.43-6.03-2.61-8.46-.405-2.475 2.25-2.655 6.075-.45 8.505z"/>
      <path id="XMLID_18_" class="st7" d="M791.145 655.695c38.295-45.27 51.705-90.765 33.3-122.67-13.545-23.445-42.165-35.82-80.19-36.315-3.33-.045-6.03 2.61-6.075 5.94-.045 3.33 2.61 6.03 5.94 6.075 34.2.45 58.86 11.115 69.975 30.33 15.3 26.46 3.375 67.05-32.04 108.9-2.16 2.52-1.845 6.3.72 8.46s6.21 1.8 8.37-.72zm-98.46-153.405c-34.65 7.425-71.505 21.915-106.92 42.39C498.15 595.26 441 669.87 448.92 723.96c.495 3.285 3.51 5.535 6.795 5.085 3.285-.495 5.535-3.51 5.085-6.795-7.065-48.015 47.115-118.71 130.95-167.13 34.335-19.845 70.065-33.885 103.455-41.04 3.24-.675 5.31-3.87 4.59-7.11s-3.87-5.355-7.11-4.68z"/>
      <path id="XMLID_15_" class="st7" d="M550.755 761.445c20.025 55.935 52.785 90.36 89.64 90.36 26.865 0 51.75-18.315 71.145-50.58 1.71-2.835.81-6.525-2.07-8.235-2.835-1.71-6.525-.81-8.235 2.07-17.415 28.98-38.835 44.775-60.84 44.775-30.6 0-59.85-30.735-78.345-82.44-1.125-3.105-4.545-4.725-7.65-3.645-3.15 1.125-4.77 4.59-3.645 7.695zm182.97-10.935c10.35-33.12 15.93-71.37 15.93-111.195 0-99.405-34.785-185.085-84.33-207.09-3.015-1.35-6.57 0-7.92 3.06s0 6.57 3.06 7.92c44.19 19.62 77.22 100.935 77.22 196.11 0 38.655-5.4 75.69-15.39 107.64-.99 3.15.765 6.525 3.915 7.515 3.15.945 6.525-.81 7.515-3.96z"/>
      <path id="XMLID_12_" class="st7" d="M846.72 744.615c0-15.84-12.87-28.71-28.71-28.71s-28.71 12.87-28.71 28.71c0 15.84 12.87 28.71 28.71 28.71s28.71-12.825 28.71-28.71zm-12.015 0c0 9.225-7.47 16.695-16.695 16.695-9.225 0-16.695-7.47-16.695-16.695 0-9.225 7.47-16.695 16.695-16.695 9.225 0 16.695 7.47 16.695 16.695z"/>
      <path id="XMLID_9_" class="st7" d="M462.375 773.325c15.84 0 28.71-12.87 28.71-28.71 0-15.84-12.87-28.71-28.71-28.71-15.84 0-28.71 12.87-28.71 28.71 0 15.885 12.825 28.71 28.71 28.71zm0-11.97c-9.225 0-16.695-7.47-16.695-16.695 0-9.225 7.47-16.695 16.695-16.695 9.225 0 16.695 7.47 16.695 16.695 0 9.18-7.47 16.695-16.695 16.695z"/>
      <path id="XMLID_6_" class="st7" d="M640.395 461.52c15.84 0 28.71-12.87 28.71-28.71 0-15.84-12.87-28.71-28.71-28.71s-28.71 12.87-28.71 28.71c0 15.84 12.825 28.71 28.71 28.71zm0-12.015c-9.225 0-16.695-7.47-16.695-16.695 0-9.225 7.47-16.695 16.695-16.695 9.225 0 16.695 7.47 16.695 16.695 0 9.225-7.47 16.695-16.695 16.695z"/>
      <path id="XMLID_5_" class="st7" d="M644.76 659.61c-11.205 2.43-22.275-4.725-24.705-15.93-2.43-11.205 4.725-22.275 15.93-24.705 11.205-2.43 22.275 4.725 24.705 15.93 2.43 11.205-4.68 22.275-15.93 24.705z"/>
    </g>
  </g>
  <path id="XMLID_2_" class="st8" d="M640 220c234.7 0 425.3 189.3 426.7 424v-4c0-235.3-191.3-426.7-426.7-426.7S213.3 404.7 213.3 640v3.3c2-234 192-423.3 426.7-423.3z"/>
</svg>
