<svg xmlns="http://www.w3.org/2000/svg" viewBox="0 0 1280 1280">
  <path d="M640.1 0C286.6 0 0 286.5 0 640s286.5 640 640 640c60 0 118.1-8.2 173.3-23.7 1.7.4 3.5.7 5.3.7h137.3c13.8 0 25.2-11.4 25.2-25.2v-50c22-13.8 43-28.8 63-45v95.1c0 13.8 10.8 25.2 24.5 25.2h137.3c13.8 0 25.2-11.4 25.2-25.2V886.5c31-75.9 49.1-159.1 49.1-246.5-.1-353.5-286.7-640-640.1-640zM732 457v373.6c0 83.9-84.1 152.5-168 152.5s-152.8-68.7-152.8-152.5S479.9 678 563.7 678c30.5 0 53.4 7.8 76.2 23V297h229v160H732zm213 754H829V691h116v520zm250 0h-116V691h116v520z" fill="#F44A23"/>
</svg>
