<svg version="1.1" viewBox="0 0 1280 1280" xmlns="http://www.w3.org/2000/svg" xmlns:cc="http://creativecommons.org/ns#" xmlns:dc="http://purl.org/dc/elements/1.1/" xmlns:rdf="http://www.w3.org/1999/02/22-rdf-syntax-ns#">
   <path d="m1094.1 855.27-37.079-21.347c27.45-58.938 42.756-124.63 42.756-193.99 0-254.01-205.87-459.93-459.89-459.93s-459.89 205.92-459.89 460c0 254.08 205.87 460 459.89 460 20.695 0 41.103-1.3656 61.079-4.025v0.2875l0.71858-0.4312c122.02-16.388 228.8-80.644 301.01-173.22l91.404-52.612c2.6588-1.4375 5.8924-4.1688 5.8924-7.4031 0-3.0906-3.2336-5.8938-5.8924-7.3313zm-388.11-78.272c0 60.303-60.433 109.61-120.72 109.61-60.289 0-109.8-49.378-109.8-109.61s49.367-109.68 109.58-109.68c21.917 0 38.372 5.6062 54.756 16.531v-290.38h164.56v115h-98.374v268.52zm28.743 278.01v-388.63l336.51 194.35-336.51 194.28z" fill="#f44a23"/>
</svg>