<?xml version="1.0" encoding="utf-8"?>
<!-- Generator: Adobe Illustrator 19.0.0, SVG Export Plug-In . SVG Version: 6.00 Build 0)  -->
<svg version="1.1" id="main_logo" xmlns="http://www.w3.org/2000/svg" xmlns:xlink="http://www.w3.org/1999/xlink" x="0px" y="0px"
	 viewBox="0 0 1280 1280" style="enable-background:new 0 0 1280 1280;" xml:space="preserve">
<style type="text/css">
	.st0{fill:none;}
	.st1{fill:#F4481E;}
	.st2{fill:url(#XMLID_32_);}
	.st3{opacity:0.1;fill:#FFFFFF;enable-background:new    ;}
	.st4{fill:#FFD119;}
	.st5{fill:#FF8C00;}
	.st6{fill:url(#XMLID_33_);}
	.st7{fill:#EEEEEE;}
	.st8{opacity:0.3;fill:#FFFFFF;enable-background:new    ;}
</style>
<rect id="XMLID_31_" class="st0" width="1280" height="1280"/>
<rect id="XMLID_30_" class="st0" width="1280" height="1280"/>
<path id="XMLID_29_" class="st1" d="M1138.7,574L249.3,68.7c-38-21.3-72-19.3-92.7,0.7l0,0c-14.7,14-22.7,36.7-22.7,66V1144
	c0,29.3,8.7,52,22.7,66l0,0c21.3,20.7,54.7,22.7,92.7,0.7l889.3-505.3C1202.7,669.3,1202.7,610.7,1138.7,574z"/>
<linearGradient id="XMLID_32_" gradientUnits="userSpaceOnUse" x1="660.3333" y1="57.556" x2="660.3333" y2="1229.08" gradientTransform="matrix(1 0 0 -1 0 1282)">
	<stop  offset="0" style="stop-color:#FFFFFF;stop-opacity:0"/>
	<stop  offset="1" style="stop-color:#FFFFFF;stop-opacity:0.1"/>
</linearGradient>
<path id="XMLID_28_" class="st2" d="M1138.7,574L249.3,68.7c-38-21.3-72-19.3-92.7,0.7l0,0c-14.7,14-22.7,36.7-22.7,66V1144
	c0,29.3,8.7,52,22.7,66l0,0c21.3,20.7,54.7,22.7,92.7,0.7l889.3-505.3C1202.7,669.3,1202.7,610.7,1138.7,574z"/>
<path id="XMLID_27_" class="st3" d="M1138.7,580.7L249.3,75.3c-64-36-116-6-116,66.7v-6.7c0-73.3,52-103.3,116-66.7L1138.7,574
	c33.3,18.7,49.3,44,47.3,69.3C1184.7,620.7,1169.3,598,1138.7,580.7z"/>
<path id="XMLID_26_" class="st4" d="M1050.7,756c10.7-36.7,16-76,16-116c0-235.3-191.3-426.7-426.7-426.7S213.3,404.7,213.3,640
	c0,197.3,134,363.3,316,412L1050.7,756z"/>
<circle id="XMLID_25_" class="st5" cx="640" cy="640" r="266.7"/>
<linearGradient id="XMLID_33_" gradientUnits="userSpaceOnUse" x1="695.3882" y1="545.9626" x2="794.8842" y2="373.6306" gradientTransform="matrix(1 0 0 -1 0 1282)">
	<stop  offset="0" style="stop-color:#991700;stop-opacity:0"/>
	<stop  offset="1" style="stop-color:#991700;stop-opacity:0.1"/>
</linearGradient>
<path id="XMLID_24_" class="st6" d="M640,213.3c-235.3,0-426.7,191.3-426.7,426.7c0,197.3,134,363.3,316,412l521.3-296
	c10.7-36.7,16-76,16-116C1066.7,404.7,875.3,213.3,640,213.3z"/>
<g id="XMLID_3_">
	<g id="XMLID_4_" transform="scale(0.45) translate(144, 134)">
		<path id="XMLID_21_" class="st7" d="M1143.5,977.8c-130-23.7-232.8,1.1-273.8,72.1c-30.6,53-21.8,123.2,21.2,198.2
			c3.7,6.4,11.8,8.6,18.2,4.9c6.4-3.7,8.6-11.8,4.9-18.2c-38.8-67.6-46.3-128.2-21.2-171.6c34-59,125.7-81.1,245.9-59.2
			c7.2,1.3,14.2-3.5,15.5-10.7C1155.6,986,1150.8,979.1,1143.5,977.8L1143.5,977.8z M958.5,1339.3c52.6,57.8,120.9,112,198.8,156.9
			c188.6,108.9,389.4,138,488.4,70.5c6.1-4.1,7.7-12.4,3.5-18.5c-4.1-6.1-12.4-7.7-18.5-3.5c-88.6,60.4-279.3,32.7-460-71.6
			c-75.6-43.6-141.7-96.1-192.4-151.8c-5-5.4-13.4-5.8-18.8-0.9C954,1325.4,953.6,1333.9,958.5,1339.3L958.5,1339.3z"/>
		<path id="XMLID_18_" class="st7" d="M1614.1,1323.1c85.1-100.6,114.9-201.7,74-272.6c-30.1-52.1-93.7-79.6-178.2-80.7
			c-7.4-0.1-13.4,5.8-13.5,13.2c-0.1,7.4,5.8,13.4,13.2,13.5c76,1,130.8,24.7,155.5,67.4c34,58.8,7.5,149-71.2,242
			c-4.8,5.6-4.1,14,1.6,18.8S1609.3,1328.7,1614.1,1323.1L1614.1,1323.1z M1395.3,982.2c-77,16.5-158.9,48.7-237.6,94.2
			C963,1188.8,836,1354.6,853.6,1474.8c1.1,7.3,7.8,12.3,15.1,11.3c7.3-1.1,12.3-7.8,11.3-15.1c-15.7-106.7,104.7-263.8,291-371.4
			c76.3-44.1,155.7-75.3,229.9-91.2c7.2-1.5,11.8-8.6,10.2-15.8S1402.5,980.7,1395.3,982.2L1395.3,982.2z"/>
		<path id="XMLID_15_" class="st7" d="M1079.9,1558.1c44.5,124.3,117.3,200.8,199.2,200.8c59.7,0,115-40.7,158.1-112.4
			c3.8-6.3,1.8-14.5-4.6-18.3c-6.3-3.8-14.5-1.8-18.3,4.6c-38.7,64.4-86.3,99.5-135.2,99.5c-68,0-133-68.3-174.1-183.2
			c-2.5-6.9-10.1-10.5-17-8.1C1081,1543.5,1077.4,1551.2,1079.9,1558.1L1079.9,1558.1z M1486.5,1533.8
			c23-73.6,35.4-158.6,35.4-247.1c0-220.9-77.3-411.3-187.4-460.2c-6.7-3-14.6,0-17.6,6.8s0,14.6,6.8,17.6
			c98.2,43.6,171.6,224.3,171.6,435.8c0,85.9-12,168.2-34.2,239.2c-2.2,7,1.7,14.5,8.7,16.7
			C1476.8,1544.7,1484.3,1540.8,1486.5,1533.8L1486.5,1533.8z"/>
		<path id="XMLID_12_" class="st7" d="M1737.6,1520.7c0-35.2-28.6-63.8-63.8-63.8s-63.8,28.6-63.8,63.8c0,35.2,28.6,63.8,63.8,63.8
			S1737.6,1556,1737.6,1520.7L1737.6,1520.7z M1710.9,1520.7c0,20.5-16.6,37.1-37.1,37.1c-20.5,0-37.1-16.6-37.1-37.1
			c0-20.5,16.6-37.1,37.1-37.1C1694.3,1483.6,1710.9,1500.2,1710.9,1520.7L1710.9,1520.7z"/>
		<path id="XMLID_9_" class="st7" d="M883.5,1584.5c35.2,0,63.8-28.6,63.8-63.8c0-35.2-28.6-63.8-63.8-63.8
			c-35.2,0-63.8,28.6-63.8,63.8C819.7,1556,848.2,1584.5,883.5,1584.5L883.5,1584.5z M883.5,1557.9c-20.5,0-37.1-16.6-37.1-37.1
			c0-20.5,16.6-37.1,37.1-37.1c20.5,0,37.1,16.6,37.1,37.1C920.6,1541.2,904,1557.9,883.5,1557.9L883.5,1557.9z"/>
		<path id="XMLID_6_" class="st7" d="M1279.1,891.6c35.2,0,63.8-28.6,63.8-63.8c0-35.2-28.6-63.8-63.8-63.8s-63.8,28.6-63.8,63.8
			C1215.3,863,1243.8,891.6,1279.1,891.6L1279.1,891.6z M1279.1,864.9c-20.5,0-37.1-16.6-37.1-37.1c0-20.5,16.6-37.1,37.1-37.1
			c20.5,0,37.1,16.6,37.1,37.1C1316.2,848.3,1299.6,864.9,1279.1,864.9L1279.1,864.9z"/>
		<path id="XMLID_5_" class="st7" d="M1288.8,1331.8c-24.9,5.4-49.5-10.5-54.9-35.4c-5.4-24.9,10.5-49.5,35.4-54.9
			c24.9-5.4,49.5,10.5,54.9,35.4C1329.6,1301.8,1313.8,1326.4,1288.8,1331.8z"/>
	</g>
</g>
<path id="XMLID_2_" class="st8" d="M640,220c234.7,0,425.3,189.3,426.7,424c0-1.3,0-2.7,0-4c0-235.3-191.3-426.7-426.7-426.7
	S213.3,404.7,213.3,640c0,1.3,0,2.7,0,3.3C215.3,409.3,405.3,220,640,220z"/>
</svg>
