<?xml version="1.0" encoding="UTF-8" standalone="no"?>
<svg
   xmlns:dc="http://purl.org/dc/elements/1.1/"
   xmlns:cc="http://creativecommons.org/ns#"
   xmlns:rdf="http://www.w3.org/1999/02/22-rdf-syntax-ns#"
   xmlns:svg="http://www.w3.org/2000/svg"
   xmlns="http://www.w3.org/2000/svg"
   xmlns:sodipodi="http://sodipodi.sourceforge.net/DTD/sodipodi-0.dtd"
   xmlns:inkscape="http://www.inkscape.org/namespaces/inkscape"
   viewBox="0 0 1280 1280"
   id="svg2"
   version="1.1"
   inkscape:version="0.91 r13725"
   sodipodi:docname="vector_logo_tray_transparent.svg">
  <metadata
     id="metadata10">
    <rdf:RDF>
      <cc:Work
         rdf:about="">
        <dc:format>image/svg+xml</dc:format>
        <dc:type
           rdf:resource="http://purl.org/dc/dcmitype/StillImage" />
      </cc:Work>
    </rdf:RDF>
  </metadata>
  <defs
     id="defs8" />
  <sodipodi:namedview
     pagecolor="#ffffff"
     bordercolor="#666666"
     borderopacity="1"
     objecttolerance="10"
     gridtolerance="10"
     guidetolerance="10"
     inkscape:pageopacity="0"
     inkscape:pageshadow="2"
     inkscape:window-width="1366"
     inkscape:window-height="705"
     id="namedview6"
     showgrid="false"
     inkscape:zoom="0.184375"
     inkscape:cx="640"
     inkscape:cy="640"
     inkscape:window-x="0"
     inkscape:window-y="30"
     inkscape:window-maximized="1"
     inkscape:current-layer="svg2" />
  <path
     d="m 640,180 c -254.07813,0 -460,205.92187 -460,460 0,254.07812 205.92187,460 460,460 254.07812,0 460,-205.92188 460,-460 0,-254.07813 -205.92188,-460 -460,-460 z m 164.59375,328.46875 -98.46875,0 0,268.525 c 0,60.30312 -60.44688,109.60937 -120.75,109.60937 -60.30313,0 -109.825,-49.37812 -109.825,-109.60937 0,-60.23125 49.37812,-109.68125 109.60937,-109.68125 21.92188,0 38.38125,5.60625 54.76876,16.53125 l 0,-290.375 164.59375,0 0,115 z"
     id="path4"
     inkscape:connector-curvature="0"
     style="fill:#f44a23" />
</svg>
