<?xml version="1.0" encoding="utf-8"?>
<!-- Generator: Adobe Illustrator 19.0.0, SVG Export Plug-In . SVG Version: 6.00 Build 0)  -->
<svg version="1.1" id="Play" xmlns="http://www.w3.org/2000/svg" xmlns:xlink="http://www.w3.org/1999/xlink" x="0px" y="0px"
	 viewBox="0 0 1280 1280" style="enable-background:new 0 0 1280 1280;" xml:space="preserve">
<style type="text/css">
	.st0{fill:#F44A23;}
	.st1{fill:#FFFFFF;}
</style>
<circle id="Background" class="st0" cx="640" cy="640" r="640"/>
<path id="Note" class="st1" d="M540,701.1c-22-15.3-45.8-24.1-76.3-24.1c0,0,0,0,0,0c0,0,0,0,0,0c-84,0-152.7,69.3-152.7,153.3
	s67.9,153,151.9,153S630,914.9,630,830.9V459h136V297H540V701.1z"/>
<path id="Pfeil_Hintergrund" class="st0" d="M1247.7,921.8c0-4.8-2.7-9-6.7-11.1L654,571.8v700l587-338.9
	C1245,930.8,1247.7,926.6,1247.7,921.8z M1239.7,910.2c-0.1,0-0.2-0.1-0.3-0.1C1239.5,910.1,1239.6,910.1,1239.7,910.2z
	 M1238.4,909.7c-0.1,0-0.3-0.1-0.4-0.1C1238.1,909.6,1238.3,909.7,1238.4,909.7z M1237,909.4c-0.1,0-0.3,0-0.4-0.1
	C1236.7,909.4,1236.8,909.4,1237,909.4z M1233.8,909.3c-0.8,0.1-1.7,0.3-2.5,0.5C1232.1,909.6,1232.9,909.4,1233.8,909.3z
	 M1229.1,910.8c-0.7,0.4-1.4,0.8-2,1.4C1227.7,911.6,1228.4,911.2,1229.1,910.8z M1226.2,912.9c-0.6,0.6-1.1,1.2-1.5,1.9
	C1225.1,914.1,1225.6,913.5,1226.2,912.9z M1224.6,928.9c0.5,0.7,1,1.3,1.5,1.9C1225.6,930.2,1225.1,929.5,1224.6,928.9z
	 M1227.1,931.5c0.6,0.5,1.3,1,2,1.4C1228.4,932.5,1227.7,932.1,1227.1,931.5z M1231.3,933.9c0.8,0.2,1.6,0.4,2.5,0.5
	C1232.9,934.3,1232.1,934.1,1231.3,933.9z M1239.4,933.6c0.1,0,0.2-0.1,0.3-0.1C1239.6,933.6,1239.5,933.6,1239.4,933.6z
	 M1236.5,934.3c0.1,0,0.3,0,0.4-0.1C1236.8,934.3,1236.7,934.3,1236.5,934.3z M1238,934.1c0.1,0,0.3-0.1,0.4-0.1
	C1238.3,934,1238.1,934,1238,934.1z"/>
<polygon id="Pfeil" class="st1" points="705,627.7 1209.3,918.8 705,1210 "/>
</svg>
