<svg id="svg3867" xmlns="http://www.w3.org/2000/svg" xmlns:xlink="http://www.w3.org/1999/xlink" viewBox="0 0 418.14 421.17"><defs><style>.cls-1{fill:url(#Unbenannter_Verlauf);}.cls-2{fill:#ffe064;}.cls-3{fill:url(#Unbenannter_Verlauf_2);}.cls-4{fill:url(#Unbenannter_Verlauf_3);}.cls-5{fill:url(#Unbenannter_Verlauf_4);}.cls-6{fill:url(#Unbenannter_Verlauf_5);}.cls-7{fill:url(#Unbenannter_Verlauf_6);}.cls-8{fill:url(#Unbenannter_Verlauf_7);}.cls-9{fill:url(#Unbenannter_Verlauf_9);}.cls-10{fill:url(#Unbenannter_Verlauf_10);}.cls-11{fill:#fff;}.cls-12{fill:url(#Unbenannter_Verlauf_11);}.cls-13{fill:url(#Unbenannter_Verlauf_12);}</style><linearGradient id="Unbenannter_Verlauf" x1="43.65" y1="429.84" x2="43.75" y2="282.8" gradientTransform="matrix(2.83, 0, 0, -2.83, 85.2, 1217.36)" gradientUnits="userSpaceOnUse"><stop offset="0" stop-color="#f55a34"/><stop offset="1" stop-color="#f44920"/></linearGradient><linearGradient id="Unbenannter_Verlauf_2" x1="42.87" y1="457.59" x2="42.87" y2="332.48" gradientTransform="matrix(2.83, 0, 0, -2.81, 87.56, 1319)" gradientUnits="userSpaceOnUse"><stop offset="0" stop-color="#ffd119" stop-opacity="0.94"/><stop offset="1" stop-color="#fac718"/></linearGradient><linearGradient id="Unbenannter_Verlauf_3" x1="42.87" y1="450.64" x2="42.87" y2="338.91" gradientTransform="matrix(2.83, 0, 0, -2.83, 87.56, 1327.59)" xlink:href="#Unbenannter_Verlauf_2"/><linearGradient id="Unbenannter_Verlauf_4" x1="46.63" y1="443.42" x2="46.63" y2="331.7" gradientTransform="matrix(2.55, 0, 0, -2.55, 90.11, 1197.34)" xlink:href="#Unbenannter_Verlauf_2"/><linearGradient id="Unbenannter_Verlauf_5" x1="50.81" y1="435.41" x2="50.81" y2="323.69" gradientTransform="matrix(2.3, 0, 0, -2.3, 92.41, 1080.11)" xlink:href="#Unbenannter_Verlauf_2"/><linearGradient id="Unbenannter_Verlauf_6" x1="42.87" y1="436.36" x2="42.87" y2="352.45" gradientTransform="matrix(2.83, 0, 0, -2.83, 87.56, 1327.59)" gradientUnits="userSpaceOnUse"><stop offset="0" stop-color="#ff8c00" stop-opacity="0.92"/><stop offset="1" stop-color="#fb8700"/></linearGradient><linearGradient id="Unbenannter_Verlauf_7" x1="47.26" y1="442.21" x2="47.26" y2="330.49" gradientTransform="matrix(2.51, 0, 0, -2.51, 90.49, 1177.99)" xlink:href="#Unbenannter_Verlauf_2"/><linearGradient id="Unbenannter_Verlauf_9" x1="53.15" y1="430.93" x2="53.15" y2="319.21" gradientTransform="matrix(2.17, 0, 0, -2.17, 93.5, 1024.26)" xlink:href="#Unbenannter_Verlauf_2"/><linearGradient id="Unbenannter_Verlauf_10" x1="57.31" y1="422.95" x2="57.31" y2="311.22" gradientTransform="matrix(1.99, 0, 0, -1.99, 95.19, 938.09)" xlink:href="#Unbenannter_Verlauf_6"/><linearGradient id="Unbenannter_Verlauf_11" x1="8.03" y1="456.2" x2="8.03" y2="332.41" gradientTransform="matrix(2.83, 0, 0, -2.83, 87.56, 1327.59)" xlink:href="#Unbenannter_Verlauf_2"/><linearGradient id="Unbenannter_Verlauf_12" x1="-59.7" y1="461.87" x2="-59.7" y2="586.25" gradientTransform="matrix(-2.83, 0, 0, 2.83, 137.9, -1275.8)" xlink:href="#Unbenannter_Verlauf_2"/></defs><title>Zeichenfläche 1</title><g id="g3845"><circle id="circle3815" class="cls-1" cx="209.07" cy="209.07" r="209.07"/><circle id="circle3817" class="cls-2" cx="209.07" cy="209.07" r="176.79"/><ellipse id="ellipse3819" class="cls-3" cx="209.07" cy="210.43" rx="176.79" ry="175.44"/><circle id="circle3821" class="cls-2" cx="209.07" cy="209.07" r="167.24"/><circle id="circle3823" class="cls-4" cx="209.07" cy="209.07" r="158.87"/><circle id="circle3825" class="cls-5" cx="209.07" cy="209.07" r="142.99"/><circle id="circle3827" class="cls-6" cx="209.07" cy="209.07" r="128.69"/><circle id="circle3829" class="cls-7" cx="209.07" cy="209.07" r="119.28"/><circle id="circle3831" class="cls-2" cx="209.07" cy="209.07" r="148.99"/><circle id="circle3833" class="cls-8" cx="209.07" cy="209.07" r="140.62"/><circle id="circle3835" class="cls-2" cx="209.07" cy="209.07" r="131.25"/><circle id="circle3837" class="cls-8" cx="209.07" cy="209.07" r="140.62"/><circle id="circle3839" class="cls-2" cx="209.07" cy="209.07" r="130.11"/><circle id="circle3841" class="cls-9" cx="209.07" cy="209.07" r="121.88"/><circle id="circle3843" class="cls-10" cx="209.07" cy="209.07" r="111.36"/></g><g id="g3859"><g id="g3857"><path id="path3847" class="cls-11" d="M171.69,156.86l94.52-19.27V164l-94.52,19.27Z"/><rect id="rect3849" class="cls-11" x="171.69" y="156.84" width="15.22" height="98.53"/><ellipse id="ellipse3851" class="cls-11" cx="161.92" cy="258.04" rx="25.36" ry="19.02" transform="translate(-61.27 50.7) rotate(-15)"/><rect id="rect3853" class="cls-11" x="250.99" y="140.75" width="15.22" height="98.53"/><ellipse id="ellipse3855" class="cls-11" cx="241.22" cy="241.94" rx="25.36" ry="19.02" transform="translate(-54.4 70.68) rotate(-15)"/></g></g><g id="g3865"><path id="path3861" class="cls-12" d="M76.7,97.53l43.13,36.7-11,17.94L98.4,176.28l-4.55,17.95L92.78,210.3,93.31,224l3.22,13.66,11.78,28.12L118,284.23l15.27,13.92,22.23,14.47,22.77,8.3,5.63,2.41L171.2,376.89l-24-5.34L127.33,361.1s-22.23-12.32-22.5-13.66-16.07-16.07-16.07-16.07L63,301.1,47.51,272.17,38.13,234.4l-1.34-37,5.09-25.71,8-29.2,9.64-18.75,8.3-12.86Z"/><path id="path3863" class="cls-13" d="M340.74,322.26l-43.12-36.7,11-17.94L319,243.51l4.56-17.95,1.07-16.07-.54-13.66-3.21-13.66L309.13,154l-9.64-18.48-15.27-13.93L262,107.17l-22.77-8.3-5.62-2.42L246.24,42.9l24.05,5.34,19.83,10.45S312.35,71,312.62,72.35s16.07,16.07,16.07,16.07l25.71,30.27,15.54,28.93,9.37,37.76,1.34,37-5.09,25.71-8,29.2L357.88,296l-8.3,12.86Z"/></g></svg>