<svg xmlns="http://www.w3.org/2000/svg" xmlns:cc="http://creativecommons.org/ns#" xmlns:dc="http://purl.org/dc/elements/1.1/" xmlns:rdf="http://www.w3.org/1999/02/22-rdf-syntax-ns#" xmlns:xlink="http://www.w3.org/1999/xlink" width="147.51mm" height="148.58mm" version="1.1" viewBox="0 0 147.51 148.58">
<defs>
<linearGradient id="c">
<stop stop-color="#ff8c00" stop-opacity=".91892" offset="0"/>
<stop stop-color="#fb8700" offset="1"/>
</linearGradient>
<linearGradient id="a">
<stop stop-color="#ffd119" stop-opacity=".93839" offset="0"/>
<stop stop-color="#fac718" offset="1"/>
</linearGradient>
<linearGradient id="o" x1="32.456" x2="32.556" y1="113.3" y2="260.34" gradientTransform="translate(-.83333 -38.887)" gradientUnits="userSpaceOnUse">
<stop stop-color="#f55a34" offset="0"/>
<stop stop-color="#f44920" offset="1"/>
</linearGradient>
<linearGradient id="n" x1="167.37" x2="167.37" y1="85" y2="210.11" gradientTransform="matrix(1 0 0 .99237 0 1.6095)" gradientUnits="userSpaceOnUse" xlink:href="#a"/>
<linearGradient id="m" x1="161.07" x2="161.07" y1="92.507" y2="204.23" gradientUnits="userSpaceOnUse" xlink:href="#a"/>
<linearGradient id="l" x1="161.07" x2="161.07" y1="92.507" y2="204.23" gradientTransform="matrix(.9 0 0 .9 10.5 14.85)" gradientUnits="userSpaceOnUse" xlink:href="#a"/>
<linearGradient id="k" x1="161.07" x2="161.07" y1="92.507" y2="204.23" gradientTransform="matrix(.81 0 0 .81 19.95 28.215)" gradientUnits="userSpaceOnUse" xlink:href="#a"/>
<linearGradient id="j" x1="147.22" x2="147.22" y1="106.73" y2="190.64" gradientUnits="userSpaceOnUse" xlink:href="#c"/>
<linearGradient id="i" x1="116.13" x2="116.13" y1="86.993" y2="210.07" gradientUnits="userSpaceOnUse" xlink:href="#a"/>
<linearGradient id="h" x1="104.22" x2="104.22" y1="210.97" y2="86.094" gradientTransform="rotate(180 105.11 148.59)" gradientUnits="userSpaceOnUse" xlink:href="#a"/>
<linearGradient id="b" x1="161.07" x2="161.07" y1="92.507" y2="204.23" gradientTransform="matrix(.88514 0 0 .88514 12.06 17.057)" gradientUnits="userSpaceOnUse" xlink:href="#a"/>
<linearGradient id="g" x1="161.07" x2="161.07" y1="92.507" y2="204.23" gradientTransform="matrix(.76712 0 0 .76712 24.452 34.583)" gradientUnits="userSpaceOnUse" xlink:href="#a"/>
<linearGradient id="f" x1="161.07" x2="161.07" y1="92.507" y2="204.23" gradientTransform="matrix(.70096 0 0 .70096 31.399 44.408)" gradientUnits="userSpaceOnUse" xlink:href="#c"/>
<linearGradient id="e" x1="96.1" x2="96.1" y1="86.89" y2="210.68" gradientUnits="userSpaceOnUse" xlink:href="#a"/>
<linearGradient id="d" x1="99.174" x2="99.174" y1="211.04" y2="86.664" gradientTransform="rotate(180 104.88 148.79)" gradientUnits="userSpaceOnUse" xlink:href="#a"/>
</defs>


<g transform="translate(-31.244 -74.744)">
<circle cx="105" cy="148.5" r="73.756" fill="url(#o)" stroke-width=".26458"/>
<circle cx="105" cy="148.5" r="62.366" fill="#ffe064" fill-rule="evenodd"/>
<ellipse cx="105" cy="148.98" rx="62.366" ry="61.89" fill="url(#n)" fill-rule="evenodd"/>
<circle cx="105" cy="148.5" r="58.997" fill="#ffe064" fill-rule="evenodd"/>
<circle cx="105" cy="148.5" r="56.047" fill="url(#m)" fill-rule="evenodd"/>
<circle cx="105" cy="148.5" r="50.442" fill="url(#l)" fill-rule="evenodd"/>
<circle cx="105" cy="148.5" r="45.398" fill="url(#k)" fill-rule="evenodd"/>
<circle cx="105" cy="148.5" r="42.08" fill="url(#j)" fill-rule="evenodd"/>
<circle cx="105" cy="148.5" r="52.561" fill="#ffe064" fill-rule="evenodd"/>
<circle cx="105" cy="148.5" r="49.609" fill="url(#b)" fill-rule="evenodd"/>
<circle cx="105" cy="148.5" r="46.302" fill="#ffe064" fill-rule="evenodd"/>
<circle cx="105" cy="148.5" r="49.609" fill="url(#b)" fill-rule="evenodd"/>
<circle cx="105" cy="148.5" r="45.901" fill="#ffe064" fill-rule="evenodd"/>
<circle cx="105" cy="148.5" r="42.995" fill="url(#g)" fill-rule="evenodd"/>
<circle cx="105" cy="148.5" r="39.287" fill="url(#f)" fill-rule="evenodd"/>
</g>

<g transform="translate(-31.244 -74.744)">
<g transform="matrix(.08947 0 0 .08947 64.845 102.13)" fill="#fff">
<path d="m301.43 312.42 372.68-76v103.93l-372.68 76z"/>
<rect x="301.43" y="312.34" width="60" height="388.5"/>
<ellipse transform="matrix(.77274 -.20706 .24886 .92877 273.33 240.34)" cx="-165" cy="470.36" rx="125" ry="78"/>
<rect x="614.11" y="248.88" width="60" height="388.5"/>
<ellipse transform="matrix(.77274 -.20706 .24886 .92877 586.02 176.87)" cx="-165" cy="470.36" rx="125" ry="78"/>
</g>
</g>

<g transform="translate(-31.244 -74.744)" fill-rule="evenodd">
<path d="m58.303 109.15 15.214 12.946-3.8743 6.3311-3.6853 8.5045-1.6064 6.3311-0.37798 5.6696 0.18899 4.8192 1.1339 4.8192 4.1577 9.9219 3.4018 6.5201 5.3862 4.9137 7.843 5.1027 8.032 2.9293 1.9844 0.85044-4.4604 18.894-8.4853-1.8853-6.9926-3.6853s-7.843-4.3467-7.9375-4.8192c-0.09449-0.47247-5.6696-5.6696-5.6696-5.6696l-9.0714-10.678-5.4807-10.205-3.3073-13.324-0.47247-13.04 1.7954-9.0714 2.8348-10.3 3.4018-6.6146 2.9293-4.5357z" fill="url(#e)"/>
<path d="m151.45 188.43-15.214-12.946 3.8742-6.3311 3.6853-8.5045 1.6064-6.3311 0.37798-5.6696-0.18899-4.8192-1.1339-4.8192-4.1577-9.9219-3.4018-6.5201-5.3862-4.9137-7.843-5.1027-8.032-2.9293-1.9844-0.85044 4.4604-18.894 8.4853 1.8853 6.9926 3.6853s7.843 4.3467 7.9375 4.8192c0.0945 0.47247 5.6696 5.6696 5.6696 5.6696l9.0714 10.678 5.4807 10.205 3.3073 13.324 0.47247 13.04-1.7954 9.0714-2.8348 10.3-3.4018 6.6146-2.9293 4.5357z" fill="url(#d)"/>
</g>
</svg>