<svg id="Tray_Icon" xmlns="http://www.w3.org/2000/svg" viewBox="0 0 1280 1280">
  <style>
    .st0{fill:#F44A23;}
  </style>
  <path id="Transparent" class="st0" d="M1272.1 939.5l-51.6-29.7c38.2-82 59.5-173.4 59.5-269.9C1280 286.5 993.5 0 640 0S0 286.5 0 640s286.5 640 640 640c28.8 0 57.2-1.9 85-5.6v.4l1-.6c169.8-22.8 318.4-112.2 418.9-241l127.2-73.2c3.7-2 8.2-5.8 8.2-10.3 0-4.3-4.5-8.2-8.2-10.2zM732 830.6c0 83.9-84.1 152.5-168 152.5s-152.8-68.7-152.8-152.5S479.9 678 563.7 678c30.5 0 53.4 7.8 76.2 23V297h229v160H732v373.6zm40 386.8V676.7l468.3 270.4L772 1217.4z"/>
</svg>
