<svg version="1.1" viewBox="0 0 1280 1280" xmlns="http://www.w3.org/2000/svg" xmlns:cc="http://creativecommons.org/ns#" xmlns:dc="http://purl.org/dc/elements/1.1/" xmlns:rdf="http://www.w3.org/1999/02/22-rdf-syntax-ns#">
   <path d="m640 180c-254.04 0-460 205.92-460 460 0 254.08 205.89 460 459.93 460 43.118 0 84.871-5.8938 124.54-17.034 1.2217 0.2875 2.5152 0.5032 3.8088 0.5032h98.669c9.9172 0 18.11-8.1938 18.11-18.113v-35.938c15.81-9.9187 30.901-20.7 45.274-32.344v68.353c0 9.9188 7.7613 18.112 17.607 18.112h98.669c9.9172 0 18.11-8.1937 18.11-18.112v-248.26c22.278-54.553 35.285-114.35 35.285-177.17-0.0719-254.08-206.03-460-460-460zm66.043 328.47v268.52c0 60.303-60.437 109.61-120.73 109.61s-109.81-49.378-109.81-109.61 49.37-109.68 109.59-109.68c21.918 0 38.375 5.6062 54.76 16.531v-290.38h164.57v115h-98.382zm153.07 541.94h-83.362v-373.75h83.362v373.75zm179.66 0h-83.362v-373.75h83.362v373.75z" fill="#f44a23"/>
</svg>
   