<?xml version="1.0" standalone="no"?><!DOCTYPE svg PUBLIC "-//W3C//DTD SVG 1.1//EN" "http://www.w3.org/Graphics/SVG/1.1/DTD/svg11.dtd"><svg width="100%" height="100%" viewBox="0 0 48 48" version="1.1" xmlns="http://www.w3.org/2000/svg" xmlns:xlink="http://www.w3.org/1999/xlink" xml:space="preserve" style="fill-rule:evenodd;clip-rule:evenodd;stroke-linejoin:round;stroke-miterlimit:1.41421;"><clipPath id="_clip1"><rect id="Close" x="0" y="0" width="48" height="48"/></clipPath><g clip-path="url(#_clip1)"><g><path d="M10,13l3,-3l11,11l11,-11l3,3l-11,11l11,11l-3,3l-11,-11l-11,11l-3,-3l11,-11l-11,-11Z" style="fill:#000;"/><path d="M38,13l-11,11l11,11l-3,3l-11,-11l-11,11l-3,-3l11,-11l-11,-11l3,-3l11,11l11,-11l3,3ZM11.061,13l11,11c0,0 -11,11 -11,11l1.939,1.939l11,-11l11,11l1.939,-1.939l-11,-11l11,-11l-1.939,-1.939l-11,11c0,0 -11,-11 -11,-11l-1.939,1.939Z" style="fill:#000;"/></g></g></svg>