<?xml version="1.0" standalone="no"?><!DOCTYPE svg PUBLIC "-//W3C//DTD SVG 1.1//EN" "http://www.w3.org/Graphics/SVG/1.1/DTD/svg11.dtd"><svg width="100%" height="100%" viewBox="0 0 48 48" version="1.1" xmlns="http://www.w3.org/2000/svg" xmlns:xlink="http://www.w3.org/1999/xlink" xml:space="preserve" style="fill-rule:evenodd;clip-rule:evenodd;stroke-linejoin:round;stroke-miterlimit:1.41421;"><clipPath id="_clip1"><rect id="Max" x="0" y="0" width="48" height="48"/></clipPath><g clip-path="url(#_clip1)"><g><path d="M46,38.033c0,1.052 -0.418,2.061 -1.162,2.805c-0.744,0.744 -1.753,1.162 -2.805,1.162c-8.349,0 -27.656,0 -36.034,0c-1.06,0 -2.078,-0.421 -2.828,-1.171c-0.75,-0.75 -1.171,-1.768 -1.171,-2.828c0,-6.934 0,-21.105 0,-28.024c0,-1.055 0.419,-2.066 1.165,-2.812c0.746,-0.746 1.757,-1.165 2.812,-1.165c8.35,0 27.624,0 36.007,0c1.065,0 2.087,0.423 2.84,1.176c0.753,0.753 1.176,1.775 1.176,2.84c0,6.943 0,21.109 0,28.017ZM42,38l0,-28l-36,0l0,28l36,0Z" style="fill:#000;"/><path d="M41.984,6l0.1,0.001l0.099,0.004l0.099,0.006l0.099,0.009l0.098,0.011l0.098,0.013l0.098,0.016l0.096,0.018l0.097,0.02l0.095,0.023l0.095,0.025l0.094,0.028l0.094,0.029l0.092,0.032l0.092,0.034l0.091,0.037l0.09,0.038l0.089,0.041l0.088,0.043l0.087,0.045l0.086,0.047l0.085,0.05l0.084,0.051l0.082,0.054l0.081,0.055l0.08,0.058l0.079,0.06l0.077,0.061l0.076,0.064l0.075,0.066l0.072,0.068l0.072,0.069l0.069,0.072l0.068,0.072l0.066,0.075l0.064,0.076l0.061,0.077l0.06,0.079l0.058,0.08l0.055,0.081l0.054,0.082l0.051,0.084l0.05,0.085l0.047,0.086l0.045,0.087l0.043,0.088l0.041,0.089l0.038,0.09l0.037,0.091l0.034,0.092l0.032,0.092l0.029,0.094l0.028,0.094l0.025,0.095l0.023,0.095l0.02,0.097l0.018,0.096l0.016,0.098l0.013,0.098l0.011,0.098l0.009,0.099l0.006,0.099l0.004,0.099l0.001,0.1l0,28.017l-0.001,0.099l-0.004,0.098l-0.006,0.098l-0.008,0.097l-0.011,0.097l-0.013,0.097l-0.016,0.096l-0.018,0.096l-0.02,0.095l-0.023,0.094l-0.024,0.094l-0.027,0.093l-0.03,0.092l-0.031,0.092l-0.034,0.09l-0.036,0.09l-0.038,0.089l-0.04,0.088l-0.043,0.087l-0.044,0.086l-0.047,0.085l-0.049,0.084l-0.051,0.083l-0.052,0.081l-0.055,0.08l-0.057,0.079l-0.059,0.078l-0.061,0.076l-0.063,0.075l-0.065,0.074l-0.067,0.072l-0.069,0.07l-0.07,0.069l-0.072,0.067l-0.074,0.065l-0.075,0.063l-0.076,0.061l-0.078,0.059l-0.079,0.057l-0.08,0.055l-0.081,0.052l-0.083,0.051l-0.084,0.049l-0.085,0.047l-0.086,0.044l-0.087,0.043l-0.088,0.04l-0.089,0.038l-0.09,0.036l-0.09,0.034l-0.092,0.031l-0.092,0.03l-0.093,0.027l-0.094,0.024l-0.094,0.023l-0.095,0.02l-0.096,0.018l-0.096,0.016l-0.097,0.013l-0.097,0.011l-0.097,0.008l-0.098,0.006l-0.098,0.004l-0.099,0.001l-36.034,0l-0.099,-0.001l-0.099,-0.004l-0.099,-0.006l-0.098,-0.009l-0.098,-0.011l-0.097,-0.013l-0.097,-0.016l-0.097,-0.018l-0.095,-0.02l-0.095,-0.023l-0.095,-0.025l-0.094,-0.027l-0.093,-0.029l-0.092,-0.032l-0.092,-0.034l-0.09,-0.036l-0.09,-0.039l-0.088,-0.04l-0.088,-0.043l-0.087,-0.045l-0.085,-0.047l-0.085,-0.049l-0.083,-0.052l-0.082,-0.053l-0.081,-0.055l-0.08,-0.058l-0.078,-0.059l-0.077,-0.062l-0.076,-0.063l-0.074,-0.066l-0.073,-0.067l-0.071,-0.069l-0.069,-0.071l-0.067,-0.073l-0.066,-0.074l-0.063,-0.076l-0.062,-0.077l-0.059,-0.078l-0.058,-0.08l-0.055,-0.081l-0.053,-0.082l-0.052,-0.083l-0.049,-0.084l-0.047,-0.086l-0.045,-0.087l-0.043,-0.088l-0.04,-0.088l-0.039,-0.09l-0.036,-0.09l-0.034,-0.092l-0.032,-0.092l-0.029,-0.093l-0.027,-0.094l-0.025,-0.095l-0.023,-0.095l-0.02,-0.095l-0.018,-0.097l-0.016,-0.097l-0.013,-0.097l-0.011,-0.098l-0.009,-0.098l-0.006,-0.099l-0.004,-0.099l-0.001,-0.099l0,-28.024l0.001,-0.098l0.004,-0.099l0.006,-0.098l0.008,-0.098l0.011,-0.097l0.014,-0.097l0.015,-0.096l0.018,-0.096l0.02,-0.095l0.023,-0.095l0.025,-0.094l0.027,-0.093l0.029,-0.093l0.032,-0.092l0.034,-0.091l0.036,-0.09l0.038,-0.089l0.04,-0.088l0.043,-0.087l0.045,-0.087l0.046,-0.085l0.049,-0.084l0.051,-0.083l0.053,-0.081l0.055,-0.081l0.057,-0.079l0.06,-0.078l0.061,-0.076l0.063,-0.075l0.065,-0.074l0.067,-0.072l0.069,-0.071l0.071,-0.069l0.072,-0.067l0.074,-0.065l0.075,-0.063l0.076,-0.061l0.078,-0.06l0.079,-0.057l0.081,-0.055l0.081,-0.053l0.083,-0.051l0.084,-0.049l0.085,-0.046l0.087,-0.045l0.087,-0.043l0.088,-0.04l0.089,-0.038l0.09,-0.036l0.091,-0.034l0.092,-0.032l0.093,-0.029l0.093,-0.027l0.094,-0.025l0.095,-0.023l0.095,-0.02l0.096,-0.018l0.096,-0.015l0.097,-0.014l0.097,-0.011l0.098,-0.008l0.098,-0.006l0.099,-0.004l0.098,-0.001l36.007,0ZM5.982,6.75l-0.085,0.001l-0.08,0.003l-0.079,0.005l-0.08,0.007l-0.079,0.009l-0.078,0.01l-0.078,0.013l-0.078,0.015l-0.078,0.016l-0.076,0.018l-0.077,0.021l-0.075,0.022l-0.075,0.023l-0.075,0.026l-0.074,0.027l-0.073,0.03l-0.072,0.031l-0.072,0.032l-0.07,0.035l-0.07,0.036l-0.069,0.038l-0.069,0.04l-0.067,0.041l-0.066,0.043l-0.065,0.045l-0.065,0.046l-0.063,0.048l-0.062,0.05l-0.061,0.051l-0.06,0.053l-0.058,0.054l-0.058,0.056l-0.056,0.058l-0.054,0.058l-0.053,0.06l-0.051,0.061l-0.05,0.062l-0.048,0.063l-0.046,0.065l-0.045,0.065l-0.043,0.066l-0.041,0.067l-0.04,0.069l-0.038,0.069l-0.036,0.07l-0.035,0.07l-0.032,0.072l-0.031,0.072l-0.03,0.073l-0.027,0.074l-0.026,0.075l-0.023,0.075l-0.022,0.075l-0.021,0.077l-0.018,0.077l-0.016,0.077l-0.015,0.078l-0.013,0.078l-0.01,0.078l-0.009,0.079l-0.007,0.08l-0.005,0.079l-0.003,0.08l-0.001,0.085l0,28.014l0.001,0.085l0.003,0.081l0.005,0.08l0.007,0.08l0.009,0.079l0.011,0.079l0.012,0.079l0.015,0.078l0.017,0.078l0.018,0.078l0.02,0.076l0.023,0.077l0.023,0.075l0.026,0.075l0.028,0.074l0.029,0.074l0.032,0.073l0.033,0.072l0.034,0.071l0.037,0.071l0.038,0.069l0.04,0.069l0.042,0.068l0.043,0.066l0.045,0.066l0.047,0.065l0.048,0.063l0.05,0.063l0.051,0.061l0.054,0.06l0.054,0.059l0.057,0.058l0.058,0.057l0.059,0.054l0.06,0.054l0.061,0.051l0.063,0.05l0.063,0.048l0.065,0.047l0.066,0.045l0.066,0.043l0.068,0.042l0.069,0.04l0.069,0.038l0.071,0.037l0.071,0.034l0.072,0.033l0.073,0.032l0.074,0.029l0.074,0.028l0.075,0.026l0.075,0.023l0.077,0.023l0.076,0.02l0.078,0.018l0.078,0.017l0.078,0.015l0.079,0.012l0.079,0.011l0.079,0.009l0.08,0.007l0.08,0.005l0.081,0.003l0.085,0.001l36.025,0l0.084,-0.001l0.08,-0.003l0.079,-0.005l0.079,-0.007l0.079,-0.009l0.078,-0.01l0.078,-0.013l0.078,-0.014l0.077,-0.017l0.076,-0.018l0.076,-0.02l0.076,-0.022l0.075,-0.024l0.074,-0.025l0.073,-0.028l0.073,-0.029l0.072,-0.031l0.072,-0.032l0.07,-0.035l0.07,-0.036l0.069,-0.038l0.068,-0.039l0.067,-0.042l0.066,-0.042l0.065,-0.045l0.064,-0.046l0.063,-0.048l0.062,-0.049l0.061,-0.052l0.059,-0.052l0.059,-0.054l0.057,-0.056l0.056,-0.057l0.054,-0.059l0.052,-0.059l0.052,-0.061l0.049,-0.062l0.048,-0.063l0.046,-0.064l0.045,-0.065l0.042,-0.066l0.042,-0.067l0.039,-0.068l0.038,-0.069l0.036,-0.07l0.035,-0.07l0.032,-0.072l0.031,-0.072l0.029,-0.073l0.028,-0.073l0.025,-0.074l0.024,-0.075l0.022,-0.076l0.02,-0.076l0.018,-0.076l0.017,-0.077l0.014,-0.078l0.013,-0.078l0.01,-0.078l0.009,-0.079l0.007,-0.079l0.005,-0.079l0.003,-0.08l0.001,-0.084l0,-28.009l-0.001,-0.085l-0.003,-0.081l-0.005,-0.081l-0.007,-0.08l-0.009,-0.08l-0.011,-0.08l-0.013,-0.079l-0.014,-0.078l-0.017,-0.079l-0.019,-0.077l-0.02,-0.077l-0.022,-0.077l-0.024,-0.076l-0.026,-0.075l-0.028,-0.075l-0.03,-0.074l-0.031,-0.073l-0.033,-0.073l-0.035,-0.071l-0.037,-0.071l-0.038,-0.07l-0.04,-0.069l-0.042,-0.068l-0.044,-0.067l-0.045,-0.066l-0.047,-0.065l-0.048,-0.064l-0.051,-0.063l-0.051,-0.062l-0.054,-0.06l-0.055,-0.059l-0.057,-0.058l-0.058,-0.057l-0.059,-0.055l-0.06,-0.054l-0.062,-0.051l-0.063,-0.051l-0.064,-0.048l-0.065,-0.047l-0.066,-0.045l-0.067,-0.044l-0.068,-0.042l-0.069,-0.04l-0.07,-0.038l-0.071,-0.037l-0.071,-0.035l-0.073,-0.033l-0.073,-0.031l-0.074,-0.03l-0.075,-0.028l-0.075,-0.026l-0.076,-0.024l-0.077,-0.022l-0.077,-0.02l-0.077,-0.019l-0.079,-0.017l-0.078,-0.014l-0.079,-0.013l-0.08,-0.011l-0.08,-0.009l-0.08,-0.007l-0.081,-0.005l-0.081,-0.003l-0.085,-0.001l-35.998,0ZM42.75,38.75l-37.5,0l0,-29.5l37.5,0l0,29.5ZM6,10l0,28l36,0l0,-28l-36,0Z" style="fill:#000;"/></g><g><path d="M10,24l4,0l0,-6l6,0l0,-4l-10,0l0,10Z" style="fill:#000;"/><path d="M20,18l-6,0l0,6l-4,0l0,-10l10,0l0,4ZM10.75,14.75l0,8.5l2.5,0l0,-6l6,0l0,-2.5l-8.5,0Z" style="fill:#000;"/></g><g><path d="M34,24l4,0l0,10l-10,0l0,-4l6,0l0,-6Z" style="fill:#000;"/><path d="M38,34l-10,0l0,-4l6,0l0,-6l4,0l0,10ZM34.75,24.75l0,6l-6,0l0,2.5l8.5,0l0,-8.5l-2.5,0Z" style="fill:#000;"/></g></g></svg>